<?xml version="1.0" standalone="no"?>
<!DOCTYPE svg PUBLIC "-//W3C//DTD SVG 20010904//EN"
 "http://www.w3.org/TR/2001/REC-SVG-20010904/DTD/svg10.dtd">
<svg version="1.0" xmlns="http://www.w3.org/2000/svg"
 width="994.000000pt" height="720.000000pt" viewBox="0 0 994.000000 720.000000"
 preserveAspectRatio="xMidYMid meet">

<g transform="translate(0.000000,720.000000) scale(0.100000,-0.100000)"
fill="#000000" stroke="none">
<path d="M4408 5370 c-274 -44 -686 -181 -717 -238 -9 -18 -8 -23 8 -32 30
-16 102 4 321 86 264 99 356 118 580 118 205 0 300 -16 520 -90 151 -51 270
-110 362 -180 350 -266 587 -632 667 -1029 34 -170 44 -312 38 -544 -7 -260
-28 -397 -92 -587 -118 -354 -308 -619 -569 -793 -299 -199 -575 -282 -936
-282 -180 0 -319 18 -505 66 -214 55 -457 154 -581 237 -135 90 -383 373 -508
580 -98 162 -145 352 -153 623 -12 362 64 679 218 915 267 409 649 639 1279
771 207 44 445 27 666 -47 204 -68 515 -236 610 -329 51 -51 184 -244 268
-391 94 -165 120 -289 121 -569 0 -275 -37 -480 -130 -731 -175 -466 -454
-702 -951 -803 -358 -73 -821 -24 -1094 114 -218 111 -404 295 -519 515 -98
187 -141 365 -141 580 0 253 69 487 201 681 42 63 379 387 473 456 113 83 306
161 509 205 85 19 132 22 287 22 166 -1 195 -3 281 -26 410 -110 684 -395 796
-828 79 -305 12 -738 -157 -1019 -132 -220 -258 -323 -520 -424 -153 -59 -174
-65 -320 -82 -339 -40 -505 -10 -719 132 -232 154 -440 441 -517 712 -25 88
-26 102 -21 260 2 91 10 191 17 221 53 242 134 388 282 507 152 122 323 210
508 260 249 67 601 29 807 -88 178 -101 297 -325 338 -636 40 -308 -10 -528
-176 -768 -160 -232 -388 -331 -748 -324 -65 1 -124 -1 -131 -6 -7 -4 -15 -2
-20 4 -4 7 -41 27 -82 45 -161 70 -268 154 -347 271 -81 122 -125 271 -137
470 -13 228 67 425 235 576 108 98 256 169 423 203 154 32 212 24 416 -56 151
-60 199 -117 272 -323 64 -181 78 -252 68 -335 -14 -122 -57 -300 -88 -367
-95 -207 -356 -298 -633 -221 -181 50 -344 176 -411 319 -56 117 -83 332 -56
431 14 49 115 175 182 229 143 114 414 175 533 120 82 -37 160 -166 189 -313
18 -89 21 -285 5 -343 -62 -221 -385 -249 -585 -49 -68 68 -90 133 -80 236 9
84 21 123 54 167 48 64 143 86 263 60 38 -8 60 -20 83 -46 56 -62 68 -92 64
-158 -8 -140 -98 -207 -199 -147 -57 33 -78 117 -37 146 34 24 78 20 110 -11
35 -34 37 -12 3 33 -44 57 -122 54 -181 -7 -78 -81 22 -241 161 -256 81 -10
159 57 191 163 31 104 7 199 -62 249 -22 16 -53 43 -70 61 -58 60 -183 65
-303 13 -108 -46 -154 -139 -155 -309 -1 -117 20 -167 105 -252 141 -139 376
-186 535 -108 74 36 116 81 157 169 27 56 31 79 35 171 5 133 -17 234 -83 367
-107 217 -247 293 -455 249 -199 -42 -452 -220 -518 -364 -53 -117 -39 -351
27 -467 16 -27 48 -85 71 -127 105 -194 333 -318 586 -318 130 0 189 12 289
60 124 59 208 149 262 282 35 87 72 243 79 335 6 76 5 84 -19 126 -17 28 -31
72 -37 116 -18 128 -96 299 -161 355 -21 18 -51 39 -66 46 -15 8 -69 38 -119
67 -135 79 -191 96 -294 90 -91 -6 -244 -42 -350 -84 -191 -76 -376 -255 -453
-439 -66 -156 -75 -398 -23 -598 42 -160 94 -255 201 -362 78 -79 104 -98 195
-143 157 -77 233 -94 420 -95 169 0 228 10 367 64 141 54 256 142 352 269 154
203 212 364 213 586 0 281 -34 500 -98 628 -38 74 -229 263 -316 311 -152 84
-332 129 -513 129 -177 -1 -360 -52 -572 -158 -152 -77 -263 -157 -358 -257
-108 -112 -162 -232 -204 -451 -28 -143 -45 -350 -32 -390 6 -18 22 -75 36
-127 52 -189 181 -414 318 -552 148 -150 340 -271 497 -315 92 -25 392 -25
500 1 41 10 98 22 125 27 210 37 451 172 613 343 159 168 260 368 314 619 28
134 31 376 5 517 -24 128 -76 281 -138 400 -167 325 -458 526 -849 585 -395
60 -841 -68 -1090 -314 -47 -46 -134 -121 -195 -166 -127 -93 -176 -146 -239
-253 -204 -349 -247 -772 -115 -1136 70 -193 167 -342 320 -491 191 -185 416
-300 690 -352 137 -25 531 -25 684 0 345 58 530 148 741 361 233 235 376 529
446 916 8 47 13 148 12 270 0 221 -17 323 -79 497 -54 153 -217 417 -336 547
-176 192 -488 362 -774 421 -120 25 -319 30 -444 11 -390 -60 -798 -200 -1000
-343 -200 -143 -402 -388 -516 -626 -105 -218 -143 -375 -152 -612 -9 -250 27
-445 127 -687 97 -237 208 -402 404 -602 127 -131 137 -137 446 -264 223 -92
372 -142 515 -172 127 -27 375 -37 498 -21 331 44 725 216 978 427 131 109
197 198 299 402 226 454 294 934 199 1412 -45 226 -119 393 -262 590 -46 63
-121 167 -166 230 -170 235 -263 307 -554 427 -280 115 -432 152 -637 158 -80
2 -171 0 -202 -5z"/>
</g>
</svg>
